<svg xmlns="http://www.w3.org/2000/svg" viewBox="0 0 64 64" role="img" aria-label="AI Quiz Generator icon">
  <defs>
    <linearGradient id="g" x1="12" y1="10" x2="54" y2="56" gradientUnits="userSpaceOnUse">
      <stop offset="0" stop-color="#60a5fa"/>
      <stop offset="1" stop-color="#a855f7"/>
    </linearGradient>
  </defs>
  <rect width="64" height="64" rx="16" fill="#0f172a"/>
  <path d="M20 21.5c0-4.7 3.8-8.5 8.5-8.5h7c5 0 9 4 9 9 0 3.2-1.7 6-4.3 7.6 2.6 1.2 4.3 3.8 4.3 6.9 0 5-4 9-9 9h-7.7c-4.7 0-8.5-3.8-8.5-8.5v-15.5Z" fill="url(#g)"/>
  <path d="M24 25h13c2 0 3.6 1.6 3.6 3.6S39 32.2 37 32.2H24V25Zm0 13.2h14.2c2 0 3.6 1.6 3.6 3.6S40.2 45.4 38.2 45.4H24v-7.2Z" fill="#e2e8f0" opacity="0.96"/>
  <circle cx="24.2" cy="52" r="2.2" fill="#60a5fa"/>
</svg>
